<svg width="1296" height="520" viewBox="0 0 1296 520" fill="none" xmlns="http://www.w3.org/2000/svg">
<rect width="1296" height="520" fill="#0E68FF"/>
<g clip-path="url(#clip0_1143:106927)">
<rect width="1296" height="438" transform="translate(0 82)" fill="#0E68FF"/>
<path opacity="0.16" fill-rule="evenodd" clip-rule="evenodd" d="M1296 466C1281.1 466 1272.9 447.714 1269 439C1265.1 430.286 1256.9 412 1242 412C1227.1 412 1218.9 430.286 1215 439C1211.1 447.714 1202.9 466 1188 466C1173.1 466 1164.9 447.714 1161 439C1157.1 430.286 1148.9 412 1134 412C1119.1 412 1110.9 430.286 1107 439C1103.1 447.714 1094.9 466 1080 466C1065.1 466 1056.9 447.714 1053 439C1049.1 430.286 1040.9 412 1026 412C1011.1 412 1002.9 430.286 999 439C995.099 447.714 986.897 466 972 466C957.103 466 948.901 447.714 945 439C941.099 430.286 932.897 412 918 412C903.103 412 894.901 430.286 891 439C887.099 447.714 878.897 466 864 466C849.103 466 840.901 447.714 837 439C833.099 430.286 824.897 412 810 412C795.103 412 786.901 430.286 783 439C779.099 447.714 770.897 466 756 466C741.103 466 732.901 447.714 729 439C725.099 430.286 716.897 412 702 412C687.103 412 678.901 430.286 675 439C671.099 447.714 662.897 466 648 466C633.103 466 624.901 447.714 621 439C617.099 430.286 608.897 412 594 412C579.103 412 570.901 430.286 567 439C563.099 447.714 554.897 466 540 466C525.103 466 516.901 447.714 513 439C509.099 430.286 500.897 412 486 412C471.103 412 462.901 430.286 459 439C455.099 447.714 446.897 466 432 466C417.103 466 408.901 447.714 405 439C401.099 430.286 392.897 412 378 412C363.103 412 354.901 430.286 351 439C347.099 447.714 338.897 466 324 466C309.103 466 300.901 447.714 297 439C293.099 430.286 284.897 412 270 412C255.103 412 246.901 430.286 243 439C239.099 447.714 230.897 466 216 466C201.103 466 192.901 447.714 189 439C185.099 430.286 176.897 412 162 412C147.103 412 138.901 430.286 135 439C131.099 447.714 122.897 466 108 466C93.1034 466 84.901 447.714 81 439C77.099 430.286 68.8966 412 54 412C39.1034 412 30.901 430.286 27 439C23.099 447.714 14.8966 466 0 466H108H216H324H432H540H648H756H864H972H1080H1188H1296ZM1296 520.105V466.105H0V520.105H1296Z" fill="#031533"/>
<path opacity="0.16" d="M1269 493C1272.9 501.714 1281.1 520 1296 520H1188H1080H972H864H756H648H540H432H324H216H108H0C14.8966 520 23.099 501.714 27 493C30.901 484.286 39.1034 466 54 466C68.8966 466 77.099 484.286 81 493C84.901 501.714 93.1034 520 108 520C122.897 520 131.099 501.714 135 493C138.901 484.286 147.103 466 162 466C176.897 466 185.099 484.286 189 493C192.901 501.714 201.103 520 216 520C230.897 520 239.099 501.714 243 493C246.901 484.286 255.103 466 270 466C284.897 466 293.099 484.286 297 493C300.901 501.714 309.103 520 324 520C338.897 520 347.099 501.714 351 493C354.901 484.286 363.103 466 378 466C392.897 466 401.099 484.286 405 493C408.901 501.714 417.103 520 432 520C446.897 520 455.099 501.714 459 493C462.901 484.286 471.103 466 486 466C500.897 466 509.099 484.286 513 493C516.901 501.714 525.103 520 540 520C554.897 520 563.099 501.714 567 493C570.901 484.286 579.103 466 594 466C608.897 466 617.099 484.286 621 493C624.901 501.714 633.103 520 648 520C662.897 520 671.099 501.714 675 493C678.901 484.286 687.103 466 702 466C716.897 466 725.099 484.286 729 493C732.901 501.714 741.103 520 756 520C770.897 520 779.099 501.714 783 493C786.901 484.286 795.103 466 810 466C824.897 466 833.099 484.286 837 493C840.901 501.714 849.103 520 864 520C878.897 520 887.099 501.714 891 493C894.901 484.286 903.103 466 918 466C932.897 466 941.099 484.286 945 493C948.901 501.714 957.103 520 972 520C986.897 520 995.099 501.714 999 493C1002.9 484.286 1011.1 466 1026 466C1040.9 466 1049.1 484.286 1053 493C1056.9 501.714 1065.1 520 1080 520C1094.9 520 1103.1 501.714 1107 493C1110.9 484.286 1119.1 466 1134 466C1148.9 466 1157.1 484.286 1161 493C1164.9 501.714 1173.1 520 1188 520C1202.9 520 1211.1 501.714 1215 493C1218.9 484.286 1227.1 466 1242 466C1256.9 466 1265.1 484.286 1269 493Z" fill="#031533"/>
</g>
<defs>
<clipPath id="clip0_1143:106927">
<rect width="1296" height="438" fill="white" transform="translate(0 82)"/>
</clipPath>
</defs>
</svg>
