<svg width="177" height="100" viewBox="0 0 177 100" fill="none" xmlns="http://www.w3.org/2000/svg">
<rect y="13" width="177" height="74" rx="16" fill="#F4F4F4"/>
<path fill-rule="evenodd" clip-rule="evenodd" d="M94.1343 24.8612L75.8584 12.758L94.1343 0.654785V10.0973H109.821C117.644 10.0973 123.985 16.4387 123.985 24.2611V65.5005C131.953 66.9362 137.998 73.9057 137.998 82.2871C137.998 91.7076 130.361 99.3445 120.94 99.3445C111.52 99.3445 103.883 91.7076 103.883 82.2871C103.883 73.9066 109.926 66.9377 117.893 65.501V27.3071C117.893 19.8444 115.456 16.1893 106.775 16.1893H94.1343V24.8612ZM131.998 82.2871C131.998 88.3939 127.047 93.3445 120.94 93.3445C114.833 93.3445 109.883 88.3939 109.883 82.2871C109.883 76.1802 114.833 71.2296 120.94 71.2296C127.047 71.2296 131.998 76.1802 131.998 82.2871ZM38 17.7126C38 11.6057 42.9506 6.65509 49.0575 6.65509C55.1643 6.65509 60.1149 11.6057 60.1149 17.7126C60.1149 23.8194 55.1643 28.77 49.0575 28.77C42.9506 28.77 38 23.8194 38 17.7126ZM32 17.7126C32 8.29198 39.6369 0.655089 49.0575 0.65509C58.4781 0.655091 66.1149 8.29198 66.1149 17.7126C66.1149 26.093 60.0713 33.062 52.1047 34.4986L52.1047 72.6925C52.1047 80.1552 54.5414 83.8104 63.2225 83.8104H75.8633V75.1384L94.1391 87.2416L75.8633 99.3448V89.9023H60.1765C52.3541 89.9023 46.0127 83.561 46.0127 75.7385L46.0127 34.4991C38.0449 33.0634 32 26.0939 32 17.7126Z" fill="#0E68FF"/>
</svg>
