<svg width="177" height="135" viewBox="0 0 177 135" fill="none" xmlns="http://www.w3.org/2000/svg">
<rect y="42" width="177" height="74" rx="16" fill="#F4F4F4"/>
<path d="M109.001 14.1412L129.944 7.66731L127.731 29.4755L116.009 19.8788L109.001 14.1412Z" fill="#0E68FF"/>
<path d="M88 58.9824L125.627 13.0236" stroke="#0E68FF" stroke-width="6"/>
<path d="M118 129L80 129L80 135L118 135C126.837 135 134 127.837 134 119L134 63L128 63L128 119C128 124.523 123.523 129 118 129Z" fill="#0E68FF"/>
<circle cx="79.1211" cy="69.6004" r="14.0575" transform="rotate(45 79.1211 69.6004)" stroke="#0E68FF" stroke-width="6"/>
<path d="M102.647 28.6852C101.176 28.2396 99.6161 28 98 28H60C51.1634 28 44 35.1634 44 44V100C44 108.837 51.1634 116 60 116H98C106.837 116 114 108.837 114 100V44C114 42.8101 113.87 41.6506 113.624 40.5348L108 47.4038V100C108 105.523 103.523 110 98 110H60C54.4772 110 50 105.523 50 100V44C50 38.4772 54.4772 34 60 34H98C98.0977 34 98.195 34.0014 98.2921 34.0042L102.647 28.6852Z" fill="#0E68FF"/>
</svg>
