<svg width="177" height="94" viewBox="0 0 177 94" fill="none" xmlns="http://www.w3.org/2000/svg">
<rect y="10" width="177" height="74" rx="16" fill="#F4F4F4"/>
<path d="M122.556 90.5777V80.7629C122.556 75.5568 120.539 70.564 116.95 66.8827C113.361 63.2014 108.493 61.1333 103.417 61.1333H65.1389C60.0629 61.1333 55.1949 63.2014 51.6057 66.8827C48.0164 70.564 46 75.5568 46 80.7629V90.5777" stroke="#0E68FF" stroke-width="6" stroke-linecap="round" stroke-linejoin="round"/>
<path d="M84.2771 42.289C95.0098 42.289 103.71 33.5884 103.71 22.8557C103.71 12.123 95.0098 3.42236 84.2771 3.42236C73.5443 3.42236 64.8438 12.123 64.8438 22.8557C64.8438 33.5884 73.5443 42.289 84.2771 42.289Z" stroke="#0E68FF" stroke-width="6" stroke-linecap="round" stroke-linejoin="round"/>
<path d="M152.001 90.5777V80.9468C151.997 76.679 150.608 72.5331 148.05 69.1601C145.492 65.7871 141.91 63.378 137.867 62.311" stroke="#0E68FF" stroke-width="6" stroke-linecap="round" stroke-linejoin="round"/>
<path d="M117.844 4.6001C122.224 5.63796 126.106 7.9954 128.878 11.3008C131.65 14.6061 133.155 18.6714 133.155 22.8557C133.155 27.0399 131.65 31.1052 128.878 34.4105C126.106 37.7159 122.224 40.0733 117.844 41.1112" stroke="#0E68FF" stroke-width="6" stroke-linecap="round" stroke-linejoin="round"/>
</svg>
