<svg xmlns="http://www.w3.org/2000/svg" version="1.1" xmlns:xlink="http://www.w3.org/1999/xlink" xmlns:svgjs="http://svgjs.com/svgjs" width="1440" height="560" preserveAspectRatio="none" viewBox="0 0 1440 560"><g mask="url(&quot;#SvgjsMask1037&quot;)" fill="none"><rect width="1440" height="560" x="0" y="0" fill="url(#SvgjsLinearGradient1038)"></rect><path d="M862.172,169.181C900.152,168.867,938.351,154.735,957.367,121.857C976.405,88.941,971.483,47.648,950.995,15.614C932.033,-14.035,897.352,-25.976,862.172,-26.986C824.693,-28.062,784.511,-21.173,764.052,10.247C741.983,44.139,742.969,89.038,764.215,123.452C784.504,156.316,823.551,169.5,862.172,169.181" fill="rgba(15, 79, 148, 0.4)" class="triangle-float2"></path><path d="M736.64 38.18 a102.15 102.15 0 1 0 204.3 0 a102.15 102.15 0 1 0 -204.3 0z" fill="rgba(15, 79, 148, 0.4)" class="triangle-float2"></path><path d="M432.54 227.49 a137.52 137.52 0 1 0 275.04 0 a137.52 137.52 0 1 0 -275.04 0z" fill="rgba(15, 79, 148, 0.4)" class="triangle-float2"></path><path d="M-19.13 271.91 a164.12 164.12 0 1 0 328.24 0 a164.12 164.12 0 1 0 -328.24 0z" fill="rgba(15, 79, 148, 0.4)" class="triangle-float2"></path><path d="M207.82 370.49 a180.71 180.71 0 1 0 361.42 0 a180.71 180.71 0 1 0 -361.42 0z" fill="rgba(15, 79, 148, 0.4)" class="triangle-float2"></path><path d="M869.1 458.4 a112.33 112.33 0 1 0 224.66 0 a112.33 112.33 0 1 0 -224.66 0z" fill="rgba(15, 79, 148, 0.4)" class="triangle-float2"></path></g><defs><mask id="SvgjsMask1037"><rect width="1440" height="560" fill="#ffffff"></rect></mask><linearGradient x1="15.28%" y1="-39.29%" x2="84.72%" y2="139.29%" gradientUnits="userSpaceOnUse" id="SvgjsLinearGradient1038"><stop stop-color="#0e2a47" offset="0"></stop><stop stop-color="#00459e" offset="1"></stop></linearGradient><style>
            @keyframes float1 {
                0%{transform: translate(0, 0)}
                50%{transform: translate(-10px, 0)}
                100%{transform: translate(0, 0)}
            }

            .triangle-float1 {
                animation: float1 5s infinite;
            }

            @keyframes float2 {
                0%{transform: translate(0, 0)}
                50%{transform: translate(-5px, -5px)}
                100%{transform: translate(0, 0)}
            }

            .triangle-float2 {
                animation: float2 4s infinite;
            }

            @keyframes float3 {
                0%{transform: translate(0, 0)}
                50%{transform: translate(0, -10px)}
                100%{transform: translate(0, 0)}
            }

            .triangle-float3 {
                animation: float3 6s infinite;
            }
        </style></defs></svg>