<svg width="32" height="32" viewBox="0 0 32 32" fill="none" xmlns="http://www.w3.org/2000/svg">
<rect width="32" height="32" rx="4" fill="#0E68FF"/>
<path fill-rule="evenodd" clip-rule="evenodd" d="M15.828 6.89999C15.19 6.89999 14.5673 6.96565 13.9664 7.09058L15.084 11.5612C15.3261 11.521 15.5747 11.5 15.8281 11.5C16.0816 11.5 16.3302 11.521 16.5722 11.5612L17.6899 7.09062C17.0889 6.96567 16.4661 6.89999 15.828 6.89999ZM17.5346 11.8348C18.715 12.319 19.6441 13.2903 20.0716 14.4987L24.4069 13.4149C24.4553 13.4028 24.5039 13.3982 24.5513 13.4004C23.7006 10.5416 21.483 8.2715 18.6563 7.34807L17.5346 11.8348ZM20.2976 15.473C20.3178 15.6459 20.3281 15.8217 20.3281 16C20.3281 16.3797 20.2811 16.7485 20.1925 17.1007L24.6494 18.2149L24.6561 18.2167C24.8337 17.5071 24.928 16.7646 24.928 16C24.928 15.4311 24.8758 14.8744 24.7759 14.3344C24.7372 14.3565 24.6948 14.3737 24.6494 14.3851L20.2976 15.473ZM19.8387 18.043C19.3513 18.998 18.5328 19.7558 17.5346 20.1652L18.6563 24.6519C21.2911 23.7912 23.3968 21.7603 24.3595 19.1732L19.8387 18.043ZM16.5722 20.4388C16.3302 20.479 16.0816 20.5 15.8281 20.5C15.5747 20.5 15.3261 20.479 15.084 20.4388L13.9664 24.9094C14.5673 25.0343 15.19 25.1 15.828 25.1C16.4661 25.1 17.0888 25.0343 17.6899 24.9094L16.5722 20.4388ZM14.1217 20.1652C13.1234 19.7558 12.305 18.998 11.8176 18.043L7.2966 19.1733C8.25927 21.7604 10.365 23.7913 13 24.652L14.1217 20.1652ZM11.4637 17.1007C11.3752 16.7485 11.3281 16.3797 11.3281 16C11.3281 15.8217 11.3385 15.6459 11.3587 15.473L7.00684 14.3851C6.96137 14.3737 6.91893 14.3564 6.88013 14.3343C6.78024 14.8743 6.72803 15.4311 6.72803 16C6.72803 16.7646 6.82233 17.5072 6.99993 18.2167L7.00684 18.2149L11.4637 17.1007ZM11.5846 14.4987C12.0122 13.2903 12.9412 12.319 14.1217 11.8348L13 7.34801C10.1732 8.27141 7.95544 10.5415 7.10475 13.4004C7.15225 13.3982 7.20087 13.4028 7.24937 13.4149L11.5846 14.4987ZM5.72803 16C5.72803 10.4219 10.25 5.89999 15.828 5.89999C21.4061 5.89999 25.928 10.4219 25.928 16C25.928 21.5781 21.4061 26.1 15.828 26.1C10.25 26.1 5.72803 21.5781 5.72803 16ZM12.3281 16C12.3281 14.067 13.8951 12.5 15.8281 12.5C17.7611 12.5 19.3281 14.067 19.3281 16C19.3281 17.933 17.7611 19.5 15.8281 19.5C13.8951 19.5 12.3281 17.933 12.3281 16Z" fill="white"/>
</svg>
