<svg width="100" height="40" viewBox="0 0 100 40" fill="none" xmlns="http://www.w3.org/2000/svg">
<path fill-rule="evenodd" clip-rule="evenodd" d="M46.2616 5C45.4073 5 44.6867 5.29838 44.1 5.89532C43.5127 6.49226 43.2196 7.2153 43.2196 8.06406C43.2196 8.91337 43.5127 9.62952 44.1 10.2127C44.6867 10.7966 45.4073 11.0881 46.2616 11.0881C47.1152 11.0881 47.8358 10.7966 48.423 10.2127C49.0098 9.62952 49.3035 8.91337 49.3035 8.06406C49.3035 7.2153 49.0098 6.49226 48.423 5.89532C47.8358 5.29838 47.1152 5 46.2616 5ZM98.4929 18.9948C98.0396 17.9361 97.4605 17.102 96.755 16.4927C96.049 15.884 95.2831 15.4601 94.4577 15.2218C93.632 14.9836 92.86 14.8644 92.1407 14.8644C91.6077 14.8644 91.0551 14.9247 90.4827 15.045C89.9097 15.1653 89.3572 15.3523 88.8249 15.6054C88.2916 15.8592 87.7992 16.1793 87.3465 16.5666C86.8935 16.9538 86.5077 17.4005 86.188 17.9076C85.815 17.3207 85.3955 16.8335 84.9297 16.4462C84.8333 16.3661 84.7354 16.2911 84.6372 16.2172V16.2253C84.0245 15.759 83.3697 15.4233 82.6721 15.2218C81.8462 14.9836 81.074 14.8644 80.3549 14.8644C79.8219 14.8644 79.2695 14.9247 78.6969 15.045C78.1238 15.1653 77.5714 15.3523 77.0391 15.6054C76.506 15.8592 76.0132 16.1793 75.5607 16.5666C75.1077 16.9538 74.7221 17.4005 74.4022 17.9076C74.029 17.3207 73.6095 16.8335 73.1439 16.4462C73.0475 16.3661 72.9496 16.2911 72.8514 16.2172C72.4749 15.9344 72.0869 15.696 71.6856 15.5054C71.1795 15.2653 70.66 15.0983 70.1276 15.0048C69.5946 14.9117 69.0889 14.8644 68.6094 14.8644C67.6769 14.8644 66.8049 15.0251 65.9928 15.3452C65.18 15.6657 64.4678 16.1192 63.8555 16.7063L63.0564 14.8644H58.3422V34.5631H63.8555V24.1459C63.8555 22.641 64.1611 21.5322 64.7744 20.8191C65.3867 20.1063 66.0788 19.7494 66.8517 19.7494C67.9167 19.7494 68.7293 20.0666 69.2886 20.7001C69.8479 21.3342 70.1276 22.4562 70.1276 24.0666V34.5631H72.8514H75.6407V24.0274C75.6407 23.1823 75.727 22.4828 75.9003 21.9282C76.0734 21.3733 76.3061 20.9378 76.5995 20.6206C76.8924 20.3041 77.225 20.0795 77.5984 19.9474C77.971 19.8157 78.3435 19.7494 78.717 19.7494C79.1164 19.7494 79.509 19.8218 79.8953 19.9671C80.2811 20.1124 80.6208 20.3568 80.914 20.7001C81.2069 21.044 81.4398 21.4925 81.6133 22.0467C81.7862 22.6015 81.873 23.2747 81.873 24.0666V34.5631H84.6372H87.3863H87.4265V24.0274C87.4265 23.1823 87.5127 22.4828 87.6862 21.9282C87.859 21.3733 88.0921 20.9378 88.3853 20.6206C88.6783 20.3041 89.0109 20.0795 89.3843 19.9474C89.7567 19.8157 90.1293 19.7494 90.5027 19.7494C90.9024 19.7494 91.2948 19.8218 91.6813 19.9671C92.0671 20.1124 92.4066 20.3568 92.7 20.7001C92.9927 21.044 93.2258 21.4925 93.3991 22.0467C93.5722 22.6015 93.6588 23.2747 93.6588 24.0666V34.5631H99.1721V23.0457C99.1721 21.4043 98.9454 20.0541 98.4929 18.9948ZM51.454 23.5793L50.6425 20.7789L48.9285 14.8645H43.2554L46.2461 24.7616L49.208 34.5631H54.6649L53.0903 29.1766L53.0834 29.2014L51.454 23.5793ZM31.1997 14.8644L27.2048 29.122L23.0899 14.8644H17.4169L23.3696 34.563H30.321L33.1972 25.0712L33.5169 22.2515L33.7964 25.0712L36.6729 34.563H38.2076L39.7821 29.1766L35.794 14.8644H31.1997ZM11.3659 23.284C12.0449 23.549 12.6374 23.8668 13.1437 24.2371C14.6081 25.2698 15.3409 26.7392 15.3409 28.6454C15.3409 29.5192 15.1343 30.3402 14.7217 31.1078C14.3085 31.8762 13.743 32.5512 13.0237 33.1333C12.3046 33.7161 11.4658 34.1726 10.507 34.5034C9.54825 34.8342 8.52243 35 7.43081 35C6.60491 35 5.79904 34.8938 5.01377 34.6822C4.22777 34.4706 3.50191 34.1795 2.83656 33.8085C2.17029 33.438 1.59113 32.9943 1.09854 32.478C0.605399 31.9617 0.239645 31.3857 0 30.7504C0.612325 30.4594 1.29153 30.1348 2.03744 29.7775C2.7828 29.4199 3.43576 29.096 3.99505 28.8043C4.2347 29.2016 4.60738 29.5657 5.11364 29.8966C5.61935 30.2279 6.31223 30.393 7.19099 30.393C8.09617 30.393 8.76226 30.1813 9.18851 29.7576C9.61422 29.3342 9.82781 28.9371 9.82781 28.5661C9.82781 28.3018 9.68111 28.0566 9.38825 27.8314C9.09484 27.6068 8.76226 27.428 8.38958 27.2952C7.85653 27.0836 7.41696 26.9713 7.07126 26.9577C6.72482 26.9446 6.32535 26.872 5.87285 26.7392C4.43443 26.3955 3.33589 25.9388 2.57687 25.369C1.81784 24.8 1.26456 24.2241 0.918851 23.6414C0.572414 23.0594 0.379422 22.5034 0.339512 21.9734C0.299601 21.4441 0.279738 21.0203 0.279738 20.7026C0.279738 19.8554 0.465805 19.0482 0.838849 18.28C1.21153 17.5122 1.72417 16.8439 2.37713 16.2743C3.02937 15.7053 3.78839 15.2486 4.6544 14.9042C5.51949 14.5603 6.44508 14.3878 7.43081 14.3878C8.25599 14.3878 9.04199 14.507 9.78772 14.7453C10.5331 14.9835 11.2121 15.3149 11.8253 15.7381C12.4377 16.162 12.9638 16.6653 13.4033 17.2474C13.8427 17.83 14.1686 18.4784 14.382 19.1935L10.1075 20.623C9.94772 20.1464 9.62115 19.763 9.12856 19.4714C8.63542 19.1804 8.10984 19.0346 7.55054 19.0346C6.99125 19.0346 6.53802 19.2201 6.19213 19.5906C5.84588 19.9616 5.67293 20.3321 5.67293 20.7026C5.67293 21.1531 5.83895 21.5037 6.17245 21.755C6.50486 22.0068 6.87152 22.1856 7.27099 22.291C7.56367 22.3445 7.85033 22.3905 8.12988 22.4302C8.40944 22.4698 8.68225 22.5162 8.94887 22.5691C9.88084 22.7813 10.6867 23.0197 11.3659 23.284Z" fill="#031533"/>
</svg>
