<svg xmlns="http://www.w3.org/2000/svg" version="1.1" xmlns:xlink="http://www.w3.org/1999/xlink" xmlns:svgjs="http://svgjs.com/svgjs" width="1440" height="560" preserveAspectRatio="none" viewBox="0 0 1440 560"><g mask="url(&quot;#SvgjsMask1114&quot;)" fill="none"><rect width="1440" height="560" x="0" y="0" fill="url(#SvgjsLinearGradient1115)"></rect><path d="M1054 135L1053 -258" stroke-width="6" stroke="url(#SvgjsLinearGradient1116)" stroke-linecap="round" class="Up"></path><path d="M257 175L256 534" stroke-width="8" stroke="url(#SvgjsLinearGradient1117)" stroke-linecap="round" class="Down"></path><path d="M341 144L340 431" stroke-width="6" stroke="url(#SvgjsLinearGradient1117)" stroke-linecap="round" class="Down"></path><path d="M1248 51L1247 374" stroke-width="10" stroke="url(#SvgjsLinearGradient1116)" stroke-linecap="round" class="Up"></path><path d="M902 522L901 779" stroke-width="10" stroke="url(#SvgjsLinearGradient1117)" stroke-linecap="round" class="Down"></path><path d="M844 99L843 294" stroke-width="8" stroke="url(#SvgjsLinearGradient1117)" stroke-linecap="round" class="Down"></path><path d="M332 0L331 -375" stroke-width="8" stroke="url(#SvgjsLinearGradient1117)" stroke-linecap="round" class="Down"></path><path d="M874 32L873 -178" stroke-width="6" stroke="url(#SvgjsLinearGradient1116)" stroke-linecap="round" class="Up"></path><path d="M247 556L246 720" stroke-width="8" stroke="url(#SvgjsLinearGradient1117)" stroke-linecap="round" class="Down"></path><path d="M946 300L945 584" stroke-width="6" stroke="url(#SvgjsLinearGradient1117)" stroke-linecap="round" class="Down"></path><path d="M530 97L529 376" stroke-width="6" stroke="url(#SvgjsLinearGradient1116)" stroke-linecap="round" class="Up"></path><path d="M1291 18L1290 333" stroke-width="6" stroke="url(#SvgjsLinearGradient1117)" stroke-linecap="round" class="Down"></path><path d="M875 486L874 730" stroke-width="10" stroke="url(#SvgjsLinearGradient1116)" stroke-linecap="round" class="Up"></path><path d="M603 144L602 427" stroke-width="8" stroke="url(#SvgjsLinearGradient1116)" stroke-linecap="round" class="Up"></path><path d="M1316 326L1315 583" stroke-width="6" stroke="url(#SvgjsLinearGradient1117)" stroke-linecap="round" class="Down"></path><path d="M303 376L302 45" stroke-width="8" stroke="url(#SvgjsLinearGradient1116)" stroke-linecap="round" class="Up"></path><path d="M1245 361L1244 61" stroke-width="8" stroke="url(#SvgjsLinearGradient1117)" stroke-linecap="round" class="Down"></path><path d="M833 384L832 534" stroke-width="10" stroke="url(#SvgjsLinearGradient1117)" stroke-linecap="round" class="Down"></path><path d="M1204 50L1203 -191" stroke-width="8" stroke="url(#SvgjsLinearGradient1116)" stroke-linecap="round" class="Up"></path><path d="M1173 502L1172 777" stroke-width="8" stroke="url(#SvgjsLinearGradient1116)" stroke-linecap="round" class="Up"></path><path d="M1114 413L1113 106" stroke-width="6" stroke="url(#SvgjsLinearGradient1116)" stroke-linecap="round" class="Up"></path><path d="M687 430L686 110" stroke-width="6" stroke="url(#SvgjsLinearGradient1117)" stroke-linecap="round" class="Down"></path><path d="M949 521L948 242" stroke-width="10" stroke="url(#SvgjsLinearGradient1117)" stroke-linecap="round" class="Down"></path><path d="M1307 439L1306 705" stroke-width="10" stroke="url(#SvgjsLinearGradient1117)" stroke-linecap="round" class="Down"></path><path d="M692 142L691 -102" stroke-width="6" stroke="url(#SvgjsLinearGradient1116)" stroke-linecap="round" class="Up"></path><path d="M114 42L113 -198" stroke-width="6" stroke="url(#SvgjsLinearGradient1116)" stroke-linecap="round" class="Up"></path><path d="M1398 76L1397 300" stroke-width="6" stroke="url(#SvgjsLinearGradient1117)" stroke-linecap="round" class="Down"></path><path d="M446 345L445 567" stroke-width="6" stroke="url(#SvgjsLinearGradient1116)" stroke-linecap="round" class="Up"></path><path d="M69 147L68 -256" stroke-width="8" stroke="url(#SvgjsLinearGradient1117)" stroke-linecap="round" class="Down"></path><path d="M206 476L205 798" stroke-width="10" stroke="url(#SvgjsLinearGradient1116)" stroke-linecap="round" class="Up"></path><path d="M76 514L75 817" stroke-width="6" stroke="url(#SvgjsLinearGradient1117)" stroke-linecap="round" class="Down"></path><path d="M1047 174L1046 444" stroke-width="6" stroke="url(#SvgjsLinearGradient1116)" stroke-linecap="round" class="Up"></path><path d="M1371 291L1370 146" stroke-width="6" stroke="url(#SvgjsLinearGradient1116)" stroke-linecap="round" class="Up"></path><path d="M168 469L167 828" stroke-width="6" stroke="url(#SvgjsLinearGradient1117)" stroke-linecap="round" class="Down"></path><path d="M494 405L493 672" stroke-width="6" stroke="url(#SvgjsLinearGradient1117)" stroke-linecap="round" class="Down"></path><path d="M1181 91L1180 -57" stroke-width="6" stroke="url(#SvgjsLinearGradient1117)" stroke-linecap="round" class="Down"></path></g><defs><mask id="SvgjsMask1114"><rect width="1440" height="560" fill="#ffffff"></rect></mask><linearGradient x1="15.28%" y1="-39.29%" x2="84.72%" y2="139.29%" gradientUnits="userSpaceOnUse" id="SvgjsLinearGradient1115"><stop stop-color="#0e2a47" offset="0"></stop><stop stop-color="rgba(0, 80, 158, 1)" offset="1"></stop></linearGradient><linearGradient x1="0%" y1="100%" x2="0%" y2="0%" id="SvgjsLinearGradient1116"><stop stop-color="rgba(28, 83, 142, 0)" offset="0"></stop><stop stop-color="#1c538e" offset="1"></stop></linearGradient><linearGradient x1="0%" y1="0%" x2="0%" y2="100%" id="SvgjsLinearGradient1117"><stop stop-color="rgba(28, 83, 142, 0)" offset="0"></stop><stop stop-color="#1c538e" offset="1"></stop></linearGradient></defs></svg>